<svg xmlns="http://www.w3.org/2000/svg"  viewBox="0 0 100 100" width="100px" height="100px"><path fill="#c7ede6" d="M87.215,56.71C88.35,54.555,89,52.105,89,49.5c0-6.621-4.159-12.257-10.001-14.478 C78.999,35.015,79,35.008,79,35c0-11.598-9.402-21-21-21c-9.784,0-17.981,6.701-20.313,15.757C36.211,29.272,34.638,29,33,29 c-7.692,0-14.023,5.793-14.89,13.252C12.906,43.353,9,47.969,9,53.5C9,59.851,14.149,65,20.5,65c0.177,0,0.352-0.012,0.526-0.022 C21.022,65.153,21,65.324,21,65.5C21,76.822,30.178,86,41.5,86c6.437,0,12.175-2.972,15.934-7.614C59.612,80.611,62.64,82,66,82 c4.65,0,8.674-2.65,10.666-6.518C77.718,75.817,78.837,76,80,76c6.075,0,11-4.925,11-11C91,61.689,89.53,58.727,87.215,56.71z"/><path fill="#fff" d="M15.405,51H5.5C5.224,51,5,50.776,5,50.5S5.224,50,5.5,50h9.905c0.276,0,0.5,0.224,0.5,0.5 S15.682,51,15.405,51z"/><path fill="#fff" d="M18.5,51h-1c-0.276,0-0.5-0.224-0.5-0.5s0.224-0.5,0.5-0.5h1c0.276,0,0.5,0.224,0.5,0.5 S18.777,51,18.5,51z"/><path fill="#fff" d="M23.491,53H14.5c-0.276,0-0.5-0.224-0.5-0.5s0.224-0.5,0.5-0.5h8.991c0.276,0,0.5,0.224,0.5,0.5 S23.767,53,23.491,53z"/><path fill="#fff" d="M12.5,53h-1c-0.276,0-0.5-0.224-0.5-0.5s0.224-0.5,0.5-0.5h1c0.276,0,0.5,0.224,0.5,0.5 S12.777,53,12.5,53z"/><path fill="#fff" d="M9.5,53h-2C7.224,53,7,52.776,7,52.5S7.224,52,7.5,52h2c0.276,0,0.5,0.224,0.5,0.5S9.777,53,9.5,53 z"/><path fill="#fff" d="M15.5,55h-2c-0.276,0-0.5-0.224-0.5-0.5s0.224-0.5,0.5-0.5h2c0.276,0,0.5,0.224,0.5,0.5 S15.776,55,15.5,55z"/><path fill="#fff" d="M18.5,46c-0.177,0-0.823,0-1,0c-0.276,0-0.5,0.224-0.5,0.5c0,0.276,0.224,0.5,0.5,0.5 c0.177,0,0.823,0,1,0c0.276,0,0.5-0.224,0.5-0.5C19,46.224,18.776,46,18.5,46z"/><path fill="#fff" d="M18.5,48c-0.177,0-4.823,0-5,0c-0.276,0-0.5,0.224-0.5,0.5c0,0.276,0.224,0.5,0.5,0.5 c0.177,0,4.823,0,5,0c0.276,0,0.5-0.224,0.5-0.5C19,48.224,18.776,48,18.5,48z"/><path fill="#fff" d="M23.5,50c-0.177,0-2.823,0-3,0c-0.276,0-0.5,0.224-0.5,0.5c0,0.276,0.224,0.5,0.5,0.5 c0.177,0,2.823,0,3,0c0.276,0,0.5-0.224,0.5-0.5C24,50.224,23.776,50,23.5,50z"/><path fill="#fff" d="M49.5,20h-10c-0.276,0-0.5-0.224-0.5-0.5s0.224-0.5,0.5-0.5h10c0.276,0,0.5,0.224,0.5,0.5 S49.776,20,49.5,20z"/><path fill="#fff" d="M53.5,20h-2c-0.276,0-0.5-0.224-0.5-0.5s0.224-0.5,0.5-0.5h2c0.276,0,0.5,0.224,0.5,0.5 S53.776,20,53.5,20z"/><path fill="#fff" d="M58.5,22h-10c-0.276,0-0.5-0.224-0.5-0.5s0.224-0.5,0.5-0.5h10c0.276,0,0.5,0.224,0.5,0.5 S58.777,22,58.5,22z"/><path fill="#fff" d="M46.5,22h-1c-0.276,0-0.5-0.224-0.5-0.5s0.224-0.5,0.5-0.5h1c0.276,0,0.5,0.224,0.5,0.5 S46.776,22,46.5,22z"/><path fill="#fff" d="M43.375,22H41.5c-0.276,0-0.5-0.224-0.5-0.5s0.224-0.5,0.5-0.5h1.875c0.276,0,0.5,0.224,0.5,0.5 S43.651,22,43.375,22z"/><path fill="#fff" d="M52.5,18h-5c-0.276,0-0.5-0.224-0.5-0.5s0.224-0.5,0.5-0.5h5c0.276,0,0.5,0.224,0.5,0.5 S52.777,18,52.5,18z"/><path fill="#fff" d="M49.5,24h-2c-0.276,0-0.5-0.224-0.5-0.5s0.224-0.5,0.5-0.5h2c0.276,0,0.5,0.224,0.5,0.5 S49.776,24,49.5,24z"/><path fill="#fdfcef" d="M82.168,76.5c1.876,0,3.504,0,3.527,0c2.102,0,3.806-1.674,3.806-3.739 c0-1.802-1.297-3.305-3.024-3.66c0.02-0.158,0.033-0.317,0.033-0.48c0-2.139-1.765-3.873-3.942-3.873 c-1.285,0-2.424,0.607-3.143,1.543c-0.184-2.381-2.349-4.218-4.882-3.913c-1.852,0.223-3.384,1.629-3.725,3.431 c-0.109,0.578-0.098,1.139,0.011,1.665c-0.496-0.525-1.203-0.856-1.991-0.856c-1.441,0-2.617,1.102-2.71,2.494 c-0.654-0.142-1.366-0.133-2.115,0.143c-1.433,0.528-2.453,1.853-2.513,3.356c-0.085,2.133,1.651,3.889,3.803,3.889 c0.163,0,0.738,0,0.871,0h7.904 M75.715,76.5h0.358"/><path fill="#472b29" d="M85.695,77h-3.527c-0.275,0-0.498-0.224-0.498-0.5s0.223-0.5,0.498-0.5h3.527 c1.824,0,3.309-1.453,3.309-3.239c0-1.524-1.104-2.857-2.627-3.17c-0.256-0.052-0.427-0.294-0.394-0.554 c0.018-0.137,0.03-0.275,0.03-0.416c0-1.86-1.545-3.373-3.444-3.373c-1.089,0-2.091,0.491-2.749,1.348 c-0.125,0.165-0.341,0.232-0.536,0.174c-0.198-0.059-0.339-0.234-0.354-0.44c-0.079-1.019-0.563-1.943-1.365-2.603 c-0.825-0.68-1.879-0.984-2.962-0.853c-1.64,0.197-2.995,1.442-3.294,3.028c-0.093,0.494-0.09,0.988,0.009,1.471 c0.046,0.219-0.059,0.441-0.257,0.544c-0.196,0.104-0.438,0.064-0.593-0.099c-0.426-0.451-1.004-0.7-1.629-0.7 c-1.166,0-2.137,0.891-2.212,2.027c-0.01,0.145-0.082,0.279-0.198,0.366c-0.115,0.088-0.262,0.12-0.405,0.089 c-0.636-0.139-1.237-0.097-1.84,0.124c-1.257,0.464-2.136,1.632-2.185,2.906c-0.035,0.875,0.281,1.708,0.891,2.345 C63.523,75.636,64.38,76,65.305,76h8.775c0.275,0,0.498,0.224,0.498,0.5S74.355,77,74.079,77h-8.775 c-1.18,0-2.322-0.485-3.132-1.332c-0.8-0.835-1.214-1.928-1.169-3.078c0.066-1.674,1.207-3.203,2.838-3.805 c0.61-0.225,1.24-0.307,1.874-0.245c0.343-1.396,1.623-2.424,3.124-2.424c0.491,0,0.973,0.113,1.408,0.323 c0.01-0.242,0.037-0.484,0.083-0.726c0.379-2.009,2.088-3.585,4.154-3.834c1.359-0.16,2.676,0.218,3.713,1.073 c0.744,0.613,1.274,1.409,1.54,2.301c0.788-0.648,1.778-1.006,2.832-1.006c2.449,0,4.44,1.961,4.44,4.373 c0,0.034-0.001,0.068-0.002,0.103C88.765,69.278,90,70.911,90,72.761C90,75.098,88.069,77,85.695,77z M76.073,77h-0.358 c-0.275,0-0.498-0.224-0.498-0.5s0.223-0.5,0.498-0.5h0.358c0.275,0,0.498,0.224,0.498,0.5S76.348,77,76.073,77z"/><path fill="#472b29" d="M83.994,71.197c-0.018,0-0.036-0.002-0.054-0.006c-0.134-0.03-0.219-0.164-0.189-0.299 c0.038-0.167,0.094-0.329,0.169-0.479c0.601-1.223,2.265-1.673,3.707-1.006c0.126,0.058,0.18,0.207,0.122,0.332 c-0.056,0.125-0.208,0.179-0.33,0.122c-1.2-0.556-2.569-0.21-3.052,0.774c-0.057,0.115-0.101,0.238-0.129,0.367 C84.211,71.118,84.108,71.197,83.994,71.197z"/><g><path fill="#472b29" d="M78.854,77h-1.103c-0.275,0-0.498-0.224-0.498-0.5s0.223-0.5,0.498-0.5h1.103 c0.275,0,0.498,0.224,0.498,0.5S79.13,77,78.854,77z"/></g><g><path fill="#6ee7ea" d="M76.005,33l0.005,36c0,1.1-0.9,2-2,2h-50c-1.11,0-2-0.9-2-2l-0.005-36c0-1.1,0.89-2,2-2h50 C75.105,31,76.005,31.9,76.005,33z"/></g><g><path fill="#58c5e2" d="M76.005,33v6.51C73.495,52.58,68.35,63.01,58.34,71H24.01c-1.11,0-2-0.9-2-2l-0.005-36 c0-1.1,0.89-2,2-2h50C75.105,31,76.005,31.9,76.005,33z"/></g><g><path fill="#43a2db" d="M59.115,31c-0.5,18.94-16.005,32.12-35.045,32.12c-0.69,0-1.38-0.02-2.06-0.06L22.005,33 c0-1.1,0.89-2,2-2H59.115z"/></g><g><path fill="#2d80d3" d="M39.095,31c-0.48,7.88-7.02,13.12-15.03,13.12c-0.7,0-1.39-0.05-2.06-0.14V33c0-1.1,0.89-2,2-2 H39.095z"/></g><path fill="#472b29" d="M74,32.4c0.331,0,0.6,0.269,0.6,0.6l0.005,36c0,0.331-0.269,0.6-0.6,0.6h-50	c-0.331,0-0.6-0.269-0.6-0.6L23.4,33c0-0.331,0.269-0.6,0.6-0.6H74 M74,31H24c-1.105,0-2,0.895-2,2l0.005,36c0,1.105,0.895,2,2,2h50	c1.105,0,2-0.895,2-2L76,33C76,31.895,75.105,31,74,31L74,31z"/><path fill="#472b29" d="M71.5,41c-0.276,0-0.5-0.224-0.5-0.5v-2c0-0.276,0.224-0.5,0.5-0.5s0.5,0.224,0.5,0.5v2	C72,40.776,71.776,41,71.5,41z"/><path fill="#472b29" d="M71.5,48c-0.276,0-0.5-0.224-0.5-0.5v-4c0-0.276,0.224-0.5,0.5-0.5s0.5,0.224,0.5,0.5v4	C72,47.776,71.776,48,71.5,48z"/><path fill="#472b29" d="M70.505,67h-7c-0.276,0-0.5-0.224-0.5-0.5s0.224-0.5,0.5-0.5h7c0.275,0,0.5-0.224,0.5-0.5L71,51.5	c0-0.276,0.224-0.5,0.5-0.5s0.5,0.224,0.5,0.5l0.005,14C72.005,66.327,71.332,67,70.505,67z"/><path fill="#472b29" d="M60.385,67h-34c-0.276,0-0.5-0.224-0.5-0.5s0.224-0.5,0.5-0.5h34c0.276,0,0.5,0.224,0.5,0.5	S60.661,67,60.385,67z"/><path fill="#fff" d="M27.5,48.818c0-1.208,2.825-5.318,7.633-5.318c7.731,0,8.902,9.455,14.003,9.455	c3.907,0,5.05-2.364,5.728-2.364c0.321,0,0.636,0.171,0.636,0.416c0,1.034-3.214,5.493-7.638,5.493	c-7.634,0-7.751-9.455-14.003-9.455c-3.35,0-4.884,2.364-5.728,2.364C27.575,49.409,27.5,49.078,27.5,48.818z"/><g><path fill="#472b29" d="M45,56.222c-0.031,0-0.063-0.006-0.094-0.018c-2.262-0.913-3.668-2.805-5.027-4.635 c-1.633-2.197-3.176-4.273-6.02-4.273c-2.149,0-3.54,1.023-4.461,1.7c-0.523,0.386-0.902,0.664-1.267,0.664 c-0.568,0-0.882-0.299-0.882-0.841c0-1.342,2.883-5.568,7.883-5.568c1.9,0,3.573,0.554,5.115,1.695 c0.111,0.083,0.135,0.239,0.053,0.35c-0.082,0.112-0.237,0.135-0.35,0.053c-1.453-1.075-3.029-1.597-4.818-1.597 c-4.695,0-7.383,3.983-7.383,5.068c0,0.2,0.027,0.341,0.382,0.341c0.2,0,0.557-0.263,0.971-0.567 c0.974-0.715,2.443-1.797,4.757-1.797c3.096,0,4.711,2.173,6.421,4.475c1.318,1.774,2.682,3.61,4.813,4.47 c0.128,0.052,0.189,0.197,0.138,0.326C45.192,56.163,45.099,56.222,45,56.222z"/><path fill="#472b29" d="M49.2,56.614c-0.117,0-0.221-0.082-0.245-0.2c-0.027-0.135,0.061-0.268,0.195-0.295 c3.665-0.743,6.1-4.362,6.1-5.112c0-0.057-0.163-0.166-0.387-0.166c-0.107,0-0.366,0.22-0.616,0.434 c-0.846,0.722-2.263,1.93-5.112,1.93c-2.406,0-3.973-1.987-5.63-4.09c-0.607-0.771-1.236-1.569-1.93-2.304 c-0.095-0.1-0.091-0.258,0.01-0.353c0.102-0.095,0.259-0.09,0.354,0.01c0.709,0.751,1.345,1.557,1.959,2.337 c1.649,2.093,3.073,3.9,5.237,3.9c2.666,0,3.994-1.133,4.788-1.811c0.391-0.333,0.648-0.553,0.94-0.553 c0.436,0,0.887,0.249,0.887,0.666c0,1.036-2.697,4.832-6.5,5.603C49.233,56.613,49.217,56.614,49.2,56.614z"/><path fill="#472b29" d="M47.862,56.75c-0.521,0-1.028-0.044-1.506-0.13c-0.137-0.024-0.227-0.155-0.202-0.291 c0.023-0.136,0.153-0.226,0.29-0.202c0.449,0.081,0.927,0.122,1.418,0.122c0.138,0,0.25,0.112,0.25,0.25S48,56.75,47.862,56.75z"/></g><polygon fill="#bdc4d6" points="55.5,50.5 56,43 62,47"/><path fill="#7c8a9f" d="M56,43l12.235-19.191c0.288-0.452,0.881-0.596,1.345-0.327l4.518,2.62	c0.492,0.285,0.647,0.923,0.341,1.403L62,47L56,43z"/><path fill="#472b29" d="M55.5,51c-0.095,0-0.188-0.027-0.271-0.08c-0.153-0.098-0.24-0.272-0.229-0.454l0.5-7.5	c0.012-0.178,0.118-0.336,0.278-0.415c0.158-0.08,0.35-0.066,0.498,0.032l6,4c0.146,0.097,0.23,0.264,0.222,0.439	c-0.008,0.175-0.107,0.333-0.262,0.417l-6.5,3.5C55.663,50.98,55.581,51,55.5,51z M56.441,43.895l-0.383,5.736l4.972-2.676	L56.441,43.895z"/><path fill="#472b29" d="M62,47.5c-0.093,0-0.186-0.025-0.269-0.079c-0.233-0.148-0.302-0.458-0.153-0.69l12.438-19.496	c0.074-0.116,0.098-0.253,0.065-0.387c-0.032-0.134-0.116-0.246-0.235-0.314l-4.519-2.621c-0.233-0.135-0.528-0.063-0.672,0.164	L56.422,43.269c-0.149,0.234-0.459,0.301-0.69,0.153c-0.233-0.148-0.302-0.458-0.153-0.69L67.813,23.54	c0.435-0.681,1.321-0.894,2.018-0.492l4.519,2.621c0.357,0.208,0.607,0.542,0.705,0.944c0.098,0.401,0.028,0.813-0.194,1.161	L62.422,47.269C62.326,47.418,62.165,47.5,62,47.5z"/><g><path fill="#fdfcef" d="M28.849,79.507c0,0,11.691,0,11.762,0c2.7,0,4.888-2.189,4.888-4.889 c0-2.355-1.666-4.321-3.884-4.784c0.026-0.206,0.043-0.415,0.043-0.628c0-2.796-2.267-5.063-5.063-5.063 c-1.651,0-3.113,0.794-4.037,2.017c-0.236-3.113-3.017-5.514-6.27-5.116c-2.379,0.291-4.346,2.13-4.784,4.486 c-0.14,0.756-0.126,1.489,0.014,2.177c-0.638-0.687-1.546-1.119-2.557-1.119c-1.85,0-3.361,1.441-3.48,3.261 c-0.84-0.186-1.754-0.174-2.717,0.188c-1.84,0.691-3.15,2.423-3.227,4.387c-0.109,2.789,2.12,5.085,4.885,5.085 c0.21,0,0.948,0,1.118,0h10.151"/><path fill="#472b29" d="M40.611,80.007H28.85c-0.276,0-0.5-0.224-0.5-0.5s0.224-0.5,0.5-0.5h11.762 c2.42,0,4.389-1.969,4.389-4.389c0-2.067-1.466-3.873-3.486-4.295c-0.254-0.053-0.426-0.292-0.394-0.55 c0.022-0.186,0.039-0.375,0.039-0.567c0-2.516-2.047-4.563-4.563-4.563c-1.438,0-2.765,0.663-3.638,1.818 c-0.125,0.166-0.342,0.237-0.539,0.179c-0.2-0.059-0.342-0.235-0.358-0.442c-0.104-1.377-0.778-2.671-1.85-3.549 c-1.084-0.887-2.452-1.279-3.861-1.109c-2.165,0.265-3.955,1.943-4.353,4.081c-0.124,0.667-0.12,1.335,0.013,1.986 c0.044,0.22-0.063,0.442-0.262,0.544c-0.197,0.102-0.442,0.061-0.595-0.104c-0.574-0.619-1.353-0.959-2.19-0.959 c-1.568,0-2.878,1.227-2.98,2.793c-0.01,0.146-0.082,0.28-0.199,0.367c-0.116,0.087-0.268,0.119-0.407,0.088 c-0.844-0.186-1.64-0.131-2.434,0.167c-1.669,0.626-2.836,2.209-2.903,3.938c-0.047,1.207,0.387,2.35,1.222,3.218 c0.835,0.869,1.959,1.347,3.163,1.347h11.27c0.276,0,0.5,0.224,0.5,0.5s-0.224,0.5-0.5,0.5h-11.27 c-1.479,0-2.858-0.587-3.884-1.653s-1.559-2.469-1.501-3.951c0.084-2.126,1.511-4.069,3.552-4.836c0.8-0.3,1.628-0.4,2.468-0.298 c0.377-1.823,1.996-3.182,3.904-3.182c0.685,0,1.354,0.179,1.944,0.51c-0.001-0.386,0.035-0.773,0.107-1.159 c0.476-2.562,2.619-4.573,5.214-4.891c1.688-0.206,3.321,0.267,4.616,1.328c1.004,0.823,1.716,1.951,2.038,3.193 c1.012-0.916,2.318-1.425,3.713-1.425c3.067,0,5.563,2.496,5.563,5.563c0,0.083-0.002,0.166-0.007,0.249 C44.406,70.127,46,72.231,46,74.619C46,77.59,43.583,80.007,40.611,80.007z"/><path fill="#fdfcef" d="M26.016,68.738c-1.808-0.119-3.365,1.13-3.476,2.789c-0.014,0.206-0.005,0.409,0.025,0.606 c-0.349-0.394-0.865-0.661-1.458-0.7c-1.085-0.071-2.022,0.645-2.158,1.62c-0.197-0.054-0.403-0.09-0.616-0.104 c-1.582-0.104-2.944,0.989-3.042,2.441"/><path fill="#472b29" d="M15.292,75.64c-0.006,0-0.011,0-0.017,0c-0.138-0.009-0.242-0.128-0.232-0.266 c0.106-1.586,1.563-2.783,3.308-2.674c0.135,0.009,0.271,0.027,0.408,0.053c0.272-0.967,1.255-1.639,2.365-1.568 c0.426,0.028,0.824,0.161,1.163,0.382c0.001-0.019,0.002-0.037,0.004-0.055c0.12-1.794,1.8-3.146,3.742-3.022 c0.138,0.009,0.242,0.128,0.232,0.266C26.258,68.891,26.159,69,26,68.988c-1.658-0.104-3.108,1.038-3.211,2.557 c-0.012,0.186-0.004,0.372,0.023,0.551c0.017,0.11-0.041,0.217-0.141,0.265c-0.102,0.046-0.221,0.022-0.294-0.061 c-0.317-0.358-0.786-0.583-1.287-0.616c-0.959-0.064-1.774,0.555-1.893,1.405c-0.011,0.071-0.051,0.134-0.11,0.174 s-0.135,0.052-0.203,0.033c-0.189-0.051-0.38-0.084-0.567-0.096c-1.452-0.099-2.687,0.896-2.776,2.208 C15.532,75.538,15.423,75.64,15.292,75.64z"/><g><path fill="#fdfcef" d="M42.591,70.407c-1.699-0.801-3.664-0.234-4.389,1.267c-0.09,0.186-0.157,0.379-0.201,0.574"/><path fill="#472b29" d="M38.001,72.497c-0.019,0-0.037-0.002-0.057-0.006c-0.134-0.031-0.218-0.166-0.187-0.3 c0.05-0.216,0.123-0.427,0.219-0.625c0.783-1.622,2.9-2.243,4.721-1.384c0.125,0.059,0.179,0.208,0.12,0.333 c-0.06,0.125-0.21,0.177-0.333,0.12c-1.575-0.743-3.394-0.226-4.057,1.149c-0.08,0.165-0.142,0.34-0.184,0.521 C38.218,72.419,38.115,72.497,38.001,72.497z"/></g></g><g><path fill="#472b29" d="M43.6,70.156c0.027,0,0.056-0.007,0.08-0.023c0.07-0.044,0.091-0.137,0.047-0.207l-1.962-3.106 c-0.044-0.07-0.138-0.091-0.207-0.047c-0.07,0.044-0.091,0.137-0.047,0.207l1.962,3.106C43.501,70.132,43.55,70.156,43.6,70.156z"/><path fill="#472b29" d="M44.6,70.156c0.027,0,0.056-0.007,0.08-0.023c0.07-0.044,0.091-0.137,0.047-0.207l-1.962-3.106 c-0.044-0.07-0.139-0.091-0.207-0.047c-0.07,0.044-0.091,0.137-0.047,0.207l1.962,3.106C44.501,70.132,44.55,70.156,44.6,70.156z"/><path fill="#472b29" d="M45.6,70.156c0.027,0,0.056-0.007,0.08-0.023c0.07-0.044,0.091-0.137,0.047-0.207l-1.962-3.106 c-0.044-0.07-0.139-0.091-0.207-0.047c-0.07,0.044-0.091,0.137-0.047,0.207l1.962,3.106C45.501,70.132,45.55,70.156,45.6,70.156z"/><path fill="#472b29" d="M46.6,70.156c0.027,0,0.056-0.007,0.08-0.023c0.07-0.044,0.091-0.137,0.047-0.207l-1.962-3.106 c-0.044-0.07-0.139-0.091-0.207-0.047c-0.07,0.044-0.091,0.137-0.047,0.207l1.962,3.106C46.501,70.132,46.55,70.156,46.6,70.156z"/><path fill="#472b29" d="M47.6,70.156c0.027,0,0.056-0.007,0.08-0.023c0.07-0.044,0.091-0.137,0.047-0.207l-1.962-3.106 c-0.044-0.07-0.139-0.091-0.207-0.047c-0.07,0.044-0.091,0.137-0.047,0.207l1.962,3.106C47.501,70.132,47.55,70.156,47.6,70.156z"/><path fill="#472b29" d="M48.6,70.156c0.027,0,0.056-0.007,0.08-0.023c0.07-0.044,0.091-0.137,0.047-0.207l-1.962-3.106 c-0.044-0.07-0.138-0.091-0.207-0.047c-0.07,0.044-0.091,0.137-0.047,0.207l1.962,3.106C48.501,70.132,48.55,70.156,48.6,70.156z"/><path fill="#472b29" d="M49.6,70.156c0.027,0,0.056-0.007,0.08-0.023c0.07-0.044,0.091-0.137,0.047-0.207l-1.297-2.053 c-0.044-0.07-0.138-0.091-0.207-0.047c-0.07,0.044-0.091,0.137-0.047,0.207l1.297,2.053C49.501,70.132,49.55,70.156,49.6,70.156z"/><path fill="#472b29" d="M50.6,70.156c0.027,0,0.056-0.007,0.08-0.023c0.07-0.044,0.091-0.137,0.047-0.207l-0.813-1.289 c-0.043-0.071-0.139-0.09-0.207-0.047c-0.07,0.044-0.091,0.137-0.047,0.207l0.813,1.289C50.501,70.132,50.55,70.156,50.6,70.156z"/></g></svg>